<?xml version="1.0" encoding="UTF-8"?>
<svg version="1.1" viewBox="0 0 400 400" xmlns="http://www.w3.org/2000/svg">
<g fill-rule="evenodd">
<path d="m148.6 128.14c-2.114 0.97-5.285 4.155-5.943 5.97-0.339 0.932-1.586 4.305-2.773 7.495-1.186 3.19-2.821 7.6-3.632 9.8-0.812 2.2-2 5.35-2.64 7s-1.812 4.8-2.603 7-1.693 4.63-2.003 5.4c-0.516 1.279-2.164 5.742-5.022 13.6-0.6 1.65-1.569 4.26-2.153 5.8-0.585 1.54-1.851 4.96-2.815 7.6s-2.859 7.77-4.212 11.4-3.248 8.76-4.211 11.4c-0.964 2.64-2.402 6.51-3.196 8.6s-1.598 4.25-1.787 4.8c-0.19 0.55-1.051 2.89-1.914 5.2s-2.233 6-3.044 8.2-1.827 4.9-2.257 6-1.234 3.337-1.788 4.97c-5.196 15.329 15.451 22.006 20.995 6.79 3.669-10.072 6.109-16.676 11.289-30.56 1.314-3.52 2.811-7.57 3.327-9s1.418-3.86 2.004-5.4 1.556-4.15 2.154-5.8 1.727-4.71 2.508-6.8c0.782-2.09 1.611-4.34 1.842-5 0.232-0.66 1.078-2.91 1.88-5 1.556-4.054 3.306-8.794 6.57-17.8 1.116-3.08 2.292-6.23 2.612-7s1.235-3.2 2.032-5.4c0.798-2.2 2.166-5.89 3.041-8.2 0.874-2.31 2.137-5.73 2.806-7.6 0.668-1.87 1.847-5.02 2.618-7 2.715-6.97 1.351-12.219-4.085-15.721-1.954-1.259-7.537-1.692-9.6-0.744m80 0.522c-9.913 2.238-12.398 14.815-4 20.249l2 1.294 64.2 0.218 64.2 0.218 4.249 1.05c11.768 2.906 17.361 9.329 17.084 19.619-0.269 10.027-4.934 14.912-17.533 18.362-1.376 0.377-17.073 0.545-66.6 0.713l-64.8 0.22-2.196 1.2c-1.588 0.868-2.639 1.847-3.8 3.537l-1.604 2.338-0.118 33.462c-0.066 18.405-0.016 34.186 0.11 35.07 1.081 7.586 14.027 10.482 18.968 4.243 2.546-3.214 2.44-1.881 2.44-30.757 0-19.948 0.116-26.449 0.48-26.813 0.369-0.369 13.643-0.481 57.3-0.483 58.03-3e-3 58.552-0.016 65.467-1.604 28.374-6.517 42.109-33.328 29.756-58.083-6.406-12.838-16.922-20.105-33.603-23.222-4.153-0.776-128.77-1.561-132-0.831m-146.45 49.241c-3.963 1.688-5.317 3.647-7.954 11.502-0.295 0.88-1.736 4.84-3.201 8.8s-2.906 7.92-3.202 8.8-1.066 3.04-1.71 4.8c-2.308 6.305-5.413 14.893-7.303 20.2-1.058 2.97-3.114 8.64-4.569 12.6-5.199 14.15-5.928 16.574-5.686 18.915 1.224 11.862 17.144 13.679 21.352 2.438 0.525-1.404 1.872-5.073 2.993-8.153 1.12-3.08 2.564-7.04 3.207-8.8 0.644-1.76 1.506-4.19 1.917-5.4s1.846-5.17 3.189-8.8c1.344-3.63 3.144-8.58 4-11s2.672-7.46 4.036-11.2c1.363-3.74 3.285-9.05 4.271-11.8s2.244-6.257 2.796-7.793c3.595-10.001-4.876-19.054-14.136-15.109m-56.819 30.862c-3.924 1.007-6.503 3.734-8.459 8.942-1.954 5.206-4.014 10.838-6.179 16.898-3.425 9.587-4.526 12.602-6.942 19-3.391 8.984-3.317 12.479 0.352 16.658 3.706 4.221 11.523 4.53 15.623 0.618 1.767-1.685 2.432-3.028 4.896-9.876 1.266-3.52 2.826-7.84 3.465-9.6 2.478-6.819 3.109-8.563 4.851-13.4 0.99-2.75 2.461-6.8 3.27-9 2.808-7.638 3.096-9.36 2.142-12.799-1.442-5.192-7.744-8.794-13.019-7.441" fill="#0555dc"/>
<path d="m0 200v200h200 200v-200-200h-200-200v200m159.18-71.139c5.536 3.625 6.332 8.748 2.815 18.139-0.906 2.42-2.432 6.603-3.392 9.295s-1.867 5.092-2.016 5.334c-0.149 0.241-1.045 2.628-1.992 5.304-0.947 2.677-2.079 5.767-2.516 6.867-0.438 1.1-1.153 2.99-1.59 4.2-0.438 1.21-1.334 3.64-1.993 5.4-0.658 1.76-2.095 5.63-3.192 8.6s-2.999 8.1-4.226 11.4c-1.226 3.3-3.252 8.79-4.502 12.2-1.249 3.41-2.724 7.37-3.278 8.8-0.553 1.43-1.598 4.22-2.323 6.2-1.259 3.443-3.62 9.83-8.132 22-1.142 3.08-2.894 7.872-3.894 10.649-3.002 8.339-5.726 10.726-12.257 10.742-10.502 0.026-13.79-7.241-9.063-20.032 1.333-3.608 3.214-8.719 4.179-11.359s2.764-7.5 3.997-10.8c1.232-3.3 2.664-7.17 3.182-8.6 0.517-1.43 2.05-5.57 3.406-9.2 2.581-6.906 5.244-14.11 8.205-22.2 2.302-6.288 4.755-12.868 6.187-16.6 0.634-1.65 1.643-4.35 2.243-6s1.594-4.35 2.209-6 1.508-4.08 1.983-5.4c0.476-1.32 1.382-3.75 2.013-5.4 1.092-2.854 2.218-5.884 5.591-15.056 1.949-5.299 2.751-6.541 5.469-8.468 2.95-2.092 9.702-2.099 12.887-0.015m202.62 0.232c42.216 8.311 51.62 59.486 14.4 78.358-11.008 5.582-13.058 5.729-80.1 5.74l-54.1 9e-3v26.167c0 29.179 0.13 27.734-2.824 31.463-2.23 2.816-3.22 3.17-8.863 3.17-5.776 0-7.223-0.653-9.542-4.31-2.009-3.167-1.991-2.815-1.878-37.958l0.107-33.132 1.183-2.334c1.367-2.699 2.741-3.982 5.817-5.43l2.2-1.036 65-0.205 65-0.206 3.255-1.035c20.513-6.523 19.624-30.097-1.354-35.874l-3.901-1.074-64.616-0.203-64.616-0.203-2.3-1.394c-8.287-5.023-7.42-17.333 1.464-20.775 3.36-1.302 128.96-1.06 135.67 0.262m-270.43 48.454c7.033 3.111 8.04 8.874 3.644 20.853-1.493 4.07-3.297 9.02-4.008 11s-2.598 7.2-4.194 11.6c-3.291 9.075-4.649 12.833-7.515 20.8-1.108 3.08-3.03 8.39-4.27 11.8-1.241 3.41-2.983 8.21-3.873 10.667-5.143 14.207-23.186 12.716-23.152-1.913 6e-3 -2.391 0.344-3.409 9.213-27.754 1.604-4.4 3.321-9.17 3.817-10.6 0.495-1.43 1.472-4.13 2.171-6 0.698-1.87 1.678-4.57 2.178-6s1.93-5.39 3.178-8.8c1.249-3.41 3.143-8.63 4.209-11.6 3.203-8.922 3.629-9.842 5.37-11.603 3.503-3.542 8.621-4.49 13.232-2.45m-57.798 31.878c3.297 1.795 5.201 4.737 5.806 8.975 0.32 2.242-0.449 5.101-3.766 14-1.353 3.63-2.615 7.05-2.804 7.6-0.348 1.014-2.055 5.736-5.349 14.8-1 2.75-2.459 6.768-3.244 8.928-2.971 8.182-5.407 10.272-11.972 10.272-9.842 0-13.952-7.715-9.803-18.4 0.897-2.31 1.959-5.19 2.359-6.4s2.29-6.43 4.199-11.6c1.91-5.17 3.712-10.12 4.005-11 3.751-11.253 5.076-13.868 8.494-16.762 2.455-2.079 8.627-2.29 12.075-0.413" fill="#fff"/>
<path d="m230.1 128.28c0.385 0.1 1.015 0.1 1.4 0 0.385-0.101 0.07-0.183-0.7-0.183s-1.085 0.082-0.7 0.183m4.2 0.019c1.155 0.081 3.045 0.081 4.2 0s0.21-0.147-2.1-0.147-3.255 0.066-2.1 0.147m11 4e-3c2.585 0.069 6.815 0.069 9.4 0 2.585-0.07 0.47-0.127-4.7-0.127s-7.285 0.057-4.7 0.127m16.2-4e-3c1.155 0.081 3.045 0.081 4.2 0s0.21-0.147-2.1-0.147-3.255 0.066-2.1 0.147m7.405-8e-3c0.609 0.092 1.509 0.09 2-5e-3 0.492-0.095-5e-3 -0.171-1.105-0.168s-1.503 0.081-0.895 0.173m3.995 0c0.605 0.091 1.595 0.091 2.2 0 0.605-0.092 0.11-0.167-1.1-0.167s-1.705 0.075-1.1 0.167m4.405 0c0.609 0.092 1.509 0.09 2-5e-3 0.492-0.095-5e-3 -0.171-1.105-0.168s-1.503 0.081-0.895 0.173m4.995 8e-3c1.155 0.081 3.045 0.081 4.2 0s0.21-0.147-2.1-0.147-3.255 0.066-2.1 0.147m12 4e-3c3.135 0.068 8.265 0.068 11.4 0 3.135-0.067 0.57-0.123-5.7-0.123s-8.835 0.056-5.7 0.123m19.2-4e-3c1.155 0.081 3.045 0.081 4.2 0s0.21-0.147-2.1-0.147-3.255 0.066-2.1 0.147m7.405-8e-3c0.609 0.092 1.509 0.09 2-5e-3 0.492-0.095-5e-3 -0.171-1.105-0.168s-1.503 0.081-0.895 0.173m3.995 0c0.605 0.091 1.595 0.091 2.2 0 0.605-0.092 0.11-0.167-1.1-0.167s-1.705 0.075-1.1 0.167m4.405 0c0.609 0.092 1.509 0.09 2-5e-3 0.492-0.095-5e-3 -0.171-1.105-0.168s-1.503 0.081-0.895 0.173m4.995 8e-3c1.155 0.081 3.045 0.081 4.2 0s0.21-0.147-2.1-0.147-3.255 0.066-2.1 0.147m9 2e-3c1.485 0.077 3.915 0.077 5.4 0s0.27-0.14-2.7-0.14-4.185 0.063-2.7 0.14m8.4 22.779c0.385 0.1 1.015 0.1 1.4 0 0.385-0.101 0.07-0.183-0.7-0.183s-1.085 0.082-0.7 0.183m47.246 19.924c1e-3 2.2 0.068 3.049 0.149 1.887 0.081-1.163 0.081-2.963-2e-3 -4-0.082-1.038-0.148-0.087-0.147 2.113m-45.441 41.683c0.497 0.096 1.217 0.092 1.6-8e-3 0.382-0.1-0.025-0.179-0.905-0.174-0.88 4e-3 -1.193 0.086-0.695 0.182m-305.4 49.717c0 0.99 0.078 1.395 0.173 0.9 0.096-0.495 0.096-1.305 0-1.8-0.095-0.495-0.173-0.09-0.173 0.9m-37.418 11.489c0.71 0.088 1.97 0.09 2.8 3e-3s0.249-0.159-1.291-0.161-2.219 0.069-1.509 0.158m47.809-0.013c0.385 0.1 1.015 0.1 1.4 0 0.385-0.101 0.07-0.183-0.7-0.183s-1.085 0.082-0.7 0.183m46.8 0.015c0.825 0.087 2.175 0.087 3 0 0.825-0.086 0.15-0.157-1.5-0.157s-2.325 0.071-1.5 0.157m122.8 5e-3c1.265 0.079 3.335 0.079 4.6 0 1.265-0.08 0.23-0.145-2.3-0.145s-3.565 0.065-2.3 0.145" fill="#99bbf0"/>
<path d="m145.29 130.3l-1.965 1.9 1.837-1.562c2.575-2.189 2.626-2.238 2.345-2.238-0.139 0-1.136 0.855-2.217 1.9m207.01-1.611c0.715 0.089 1.885 0.089 2.6 0 0.715-0.088 0.13-0.161-1.3-0.161s-2.015 0.073-1.3 0.161m-126.7 0.711c-0.55 0.314-0.82 0.572-0.6 0.572s0.85-0.258 1.4-0.572 0.82-0.572 0.6-0.572-0.85 0.258-1.4 0.572m-65.2 1.2c0.746 0.77 1.447 1.4 1.557 1.4s-0.411-0.63-1.157-1.4-1.447-1.4-1.557-1.4 0.411 0.63 1.157 1.4m-18.735 5.217c-0.67 1.471-0.542 1.785 0.182 0.448 0.339-0.625 0.541-1.211 0.449-1.302-0.091-0.092-0.375 0.293-0.631 0.854m236.34-0.467c0 0.094 0.641 0.549 1.424 1.011s1.312 0.659 1.175 0.437c-0.268-0.434-2.599-1.732-2.599-1.448m-214.28 3.25c2e-3 1.32 0.077 1.812 0.166 1.093s0.087-1.799-4e-3 -2.4-0.164-0.013-0.162 1.307m55.604 1c0 1.43 0.073 2.015 0.161 1.3 0.089-0.715 0.089-1.885 0-2.6-0.088-0.715-0.161-0.13-0.161 1.3m167.27 2.4c1.083 1.1 2.06 2 2.17 2s-0.687-0.9-1.77-2-2.06-2-2.17-2 0.687 0.9 1.77 2m-165.4 4c0.47 0.66 0.944 1.2 1.054 1.2s-0.184-0.54-0.654-1.2-0.944-1.2-1.054-1.2 0.184 0.54 0.654 1.2m37.269 4.7c16.867 0.058 44.587 0.058 61.6 0 17.012-0.058 3.211-0.105-30.669-0.105s-47.799 0.047-30.931 0.105m136.36 3.1c0 0.22 0.258 0.85 0.572 1.4s0.572 0.82 0.572 0.6-0.258-0.85-0.572-1.4-0.572-0.82-0.572-0.6m3.665 12.2c0 0.77 0.082 1.085 0.183 0.7 0.1-0.385 0.1-1.015 0-1.4-0.101-0.385-0.183-0.07-0.183 0.7m0 10c0 0.77 0.082 1.085 0.183 0.7 0.1-0.385 0.1-1.015 0-1.4-0.101-0.385-0.183-0.07-0.183 0.7m-313.39 1.089c0.715 0.089 1.885 0.089 2.6 0 0.715-0.088 0.13-0.161-1.3-0.161s-2.015 0.073-1.3 0.161m9.264 3.244c0.216 0.403 0.707 0.988 1.091 1.3 0.432 0.351 0.335 0.071-0.254-0.733-1.05-1.435-1.444-1.702-0.837-0.567m277.02 2.967l-1.985 2.1 2.1-1.985c1.951-1.844 2.283-2.215 1.985-2.215-0.063 0-1.008 0.945-2.1 2.1m-274.06 4.7c0 1.21 0.075 1.705 0.167 1.1 0.091-0.605 0.091-1.595 0-2.2-0.092-0.605-0.167-0.11-0.167 1.1m263.28 0.8c-0.504 0.217-0.578 0.344-0.2 0.344 0.33 0 0.96-0.155 1.4-0.344 0.504-0.217 0.578-0.344 0.2-0.344-0.33 0-0.96 0.155-1.4 0.344m-99.731 1.5c17.087 0.058 45.167 0.058 62.4 0 17.232-0.058 3.251-0.105-31.069-0.105s-48.419 0.047-31.331 0.105m129.29 5.181c-0.848 1.035-1.333 1.753-1.078 1.595 0.544-0.336 3.078-3.476 2.805-3.476-0.102 0-0.879 0.847-1.727 1.881m-2.977 3.619l-1.378 1.5 1.5-1.378c1.396-1.284 1.684-1.622 1.378-1.622-0.066 0-0.741 0.675-1.5 1.5m-293.26 0.31c-0.123 0.435-0.346 1.15-0.495 1.59s0.022 0.294 0.38-0.324 0.581-1.334 0.495-1.59c-0.085-0.256-0.256-0.11-0.38 0.324m125.48 32.99c0 18.59 0.049 26.195 0.109 16.9s0.06-24.505 0-33.8-0.109-1.69-0.109 16.9m164.01-30.137c-1.712 1.568-1.764 1.655-0.362 0.6 1.481-1.114 2.889-2.487 2.511-2.448-0.082 9e-3 -1.049 0.84-2.149 1.848m-6.3 3.966c-1.495 0.811-1.404 1.149 0.1 0.371 0.66-0.341 1.2-0.706 1.2-0.81 0-0.258-0.043-0.243-1.3 0.439m-9.3 3.771c-0.504 0.217-0.578 0.344-0.2 0.344 0.33 0 0.96-0.155 1.4-0.344 0.504-0.217 0.578-0.344 0.2-0.344-0.33 0-0.96 0.155-1.4 0.344m-302.37 2.629c-0.148 0.586-0.191 1.143-0.097 1.237 0.095 0.094 0.292-0.308 0.439-0.895 0.148-0.586 0.191-1.143 0.097-1.237-0.095-0.094-0.292 0.308-0.439 0.895m-28.63 0.471c0.523 0.715 1.014 1.3 1.09 1.3 0.304 0-0.688-1.5-1.344-2.033-0.432-0.351-0.335-0.071 0.254 0.733m-18.37 0.354c-0.456 0.58-0.824 1.255-0.817 1.5s0.212 0.086 0.456-0.354 0.717-1.115 1.05-1.5 0.501-0.7 0.373-0.7-0.606 0.474-1.062 1.054m251.04-0.754c15.218 0.058 40.238 0.058 55.6 0s2.911-0.106-27.669-0.106-43.149 0.048-27.931 0.106m-28.08 26.9c0 14.63 0.05 20.615 0.111 13.3s0.061-19.285 0-26.6-0.111-1.33-0.111 13.3m-202.48-20.2c3e-3 1.1 0.081 1.503 0.173 0.895 0.092-0.609 0.09-1.509-5e-3 -2-0.095-0.492-0.171 5e-3 -0.168 1.105m47.166 1.68c-0.592 1.929-0.305 2.215 0.32 0.32 0.264-0.799 0.402-1.531 0.307-1.626-0.095-0.096-0.377 0.492-0.627 1.306m47.185 1.537c-0.67 1.471-0.542 1.785 0.182 0.448 0.339-0.625 0.541-1.211 0.449-1.302-0.091-0.092-0.375 0.293-0.631 0.854m-2.615 6.974c-0.903 2.256-0.763 2.592 0.187 0.451 0.429-0.967 0.708-1.83 0.621-1.917s-0.45 0.573-0.808 1.466m-72.585 3.426c-0.256 0.561-0.458 1.237-0.449 1.502 8e-3 0.264 0.281-0.131 0.606-0.88 0.683-1.574 0.539-2.149-0.157-0.622m20.585 8.574c-0.903 2.256-0.763 2.592 0.187 0.451 0.429-0.967 0.708-1.83 0.621-1.917s-0.45 0.573-0.808 1.466m-29.404 15.648c-0.245 0.704-0.433 1.479-0.418 1.721 0.016 0.242 0.286-0.264 0.602-1.125 0.315-0.861 0.503-1.635 0.418-1.72-0.086-0.086-0.356 0.42-0.602 1.124m-48.332 5.761c3e-3 1.1 0.081 1.503 0.173 0.895 0.092-0.609 0.09-1.509-5e-3 -2-0.095-0.492-0.171 5e-3 -0.168 1.105m69.111 2.425c-0.469 1.254-0.783 2.35-0.698 2.435s0.534-0.876 0.998-2.135 0.778-2.355 0.698-2.435-0.529 0.881-0.998 2.135m44.602 4.88c-1.181 1.373-1.447 1.813-0.664 1.095 1.187-1.087 3.076-3.407 2.764-3.395-0.07 3e-3 -1.015 1.038-2.1 2.3m-109.76 0.995c0.826 0.825 1.734 1.495 2.018 1.488 0.283-7e-3 0.155-0.211-0.285-0.453s-1.348-0.912-2.018-1.488c-0.678-0.583-0.552-0.382 0.285 0.453m14.908-0.4l-1.175 1.3 1.3-1.175c0.715-0.646 1.3-1.231 1.3-1.3 0-0.309-0.33-0.037-1.425 1.175m77.825-1.175c0 0.069 0.585 0.654 1.3 1.3l1.3 1.175-1.175-1.3c-1.095-1.212-1.425-1.484-1.425-1.175" fill="#74a4ec"/>
<path d="m151.7 127.49c0.605 0.091 1.595 0.091 2.2 0 0.605-0.092 0.11-0.167-1.1-0.167s-1.705 0.075-1.1 0.167m200.2 0.796c0.497 0.096 1.217 0.092 1.6-8e-3 0.382-0.1-0.025-0.179-0.905-0.174-0.88 4e-3 -1.193 0.086-0.695 0.182m-132.98 11.317c0 1.21 0.075 1.705 0.167 1.1 0.091-0.605 0.091-1.595 0-2.2-0.092-0.605-0.167-0.11-0.167 1.1m169.08 3.325c0 0.069 0.585 0.654 1.3 1.3l1.3 1.175-1.175-1.3c-1.095-1.212-1.425-1.484-1.425-1.175m-128.87 8.175c16.793 0.058 44.153 0.058 60.8 0 16.648-0.058 2.909-0.105-30.531-0.105s-47.061 0.047-30.269 0.105m111.65 7c1.658 1.766 2.017 2.084 2.017 1.783 0-0.064-0.855-0.919-1.9-1.9l-1.9-1.783 1.783 1.9m5.331 12.9c3e-3 1.1 0.081 1.503 0.173 0.895 0.092-0.609 0.09-1.509-5e-3 -2-0.095-0.492-0.171 5e-3 -0.168 1.105m22.779 5c0 0.77 0.082 1.085 0.183 0.7 0.1-0.385 0.1-1.015 0-1.4-0.101-0.385-0.183-0.07-0.183 0.7m-313.39 0.682c0.495 0.096 1.305 0.096 1.8 0 0.495-0.095 0.09-0.173-0.9-0.173s-1.395 0.078-0.9 0.173m12.22 11.318c0 1.21 0.075 1.705 0.167 1.1 0.091-0.605 0.091-1.595 0-2.2-0.092-0.605-0.167-0.11-0.167 1.1m163.18 1.9c17.105 0.058 45.095 0.058 62.2 0s3.11-0.105-31.1-0.105-48.205 0.047-31.1 0.105m126.3 9.5c-0.972 0.99-1.677 1.8-1.567 1.8s0.995-0.81 1.967-1.8 1.677-1.8 1.567-1.8-0.995 0.81-1.967 1.8m-168.21 33c0 18.37 0.049 25.885 0.109 16.7s0.06-24.215 0-33.4-0.109-1.67-0.109 16.7m137.11-19.724c0.385 0.1 1.015 0.1 1.4 0 0.385-0.101 0.07-0.183-0.7-0.183s-1.085 0.082-0.7 0.183m-86.569 0.424c15.252 0.058 40.092 0.058 55.2 0s2.629-0.106-27.731-0.106-42.721 0.048-27.469 0.106m-27.742 26.7c0 14.52 0.05 20.402 0.111 13.071s0.061-19.211 0-26.4-0.111-1.191-0.111 13.329m-202.5-20.2c0 0.77 0.082 1.085 0.183 0.7 0.1-0.385 0.1-1.015 0-1.4-0.101-0.385-0.183-0.07-0.183 0.7m-19.112 51.3l-1.581 1.7 1.7-1.581c1.581-1.471 1.884-1.819 1.581-1.819-0.065 0-0.83 0.765-1.7 1.7m78.219 0.1c0.746 0.77 1.447 1.4 1.557 1.4s-0.411-0.63-1.157-1.4-1.447-1.4-1.557-1.4 0.411 0.63 1.157 1.4m122.8-0.475c0 0.069 0.585 0.654 1.3 1.3l1.3 1.175-1.175-1.3c-1.095-1.212-1.425-1.484-1.425-1.175m-215.91 1.575c0.619 0.605 1.348 1.095 1.619 1.088 0.272-7e-3 0.134-0.211-0.306-0.455-0.44-0.243-1.169-0.733-1.619-1.088-0.451-0.355-0.313-0.15 0.306 0.455" fill="#c2d7f5"/>
</g>
</svg>
